<?xml version="1.0" standalone="no"?>
<!DOCTYPE svg PUBLIC "-//W3C//DTD SVG 20010904//EN"
 "http://www.w3.org/TR/2001/REC-SVG-20010904/DTD/svg10.dtd">
<svg version="1.0" xmlns="http://www.w3.org/2000/svg"
 width="1600.000000pt" height="1600.000000pt" viewBox="0 0 1600.000000 1600.000000"
 preserveAspectRatio="xMidYMid meet">
<metadata>
Created by potrace 1.11, written by Peter Selinger 2001-2013
</metadata>
<g transform="translate(0.000000,1600.000000) scale(0.100000,-0.100000)"
fill="#000000" stroke="none">
<path d="M1018 15980 c-257 -54 -465 -166 -649 -349 -187 -188 -304 -408 -353
-670 -14 -75 -16 -749 -16 -6961 0 -5991 2 -6888 15 -6961 89 -513 511 -935
1024 -1024 127 -23 13795 -23 13922 0 513 89 935 511 1024 1024 13 73 15 970
15 6961 0 6212 -2 6886 -16 6961 -49 262 -166 482 -353 670 -188 187 -408 304
-670 353 -75 14 -748 16 -6970 15 -6646 0 -6889 -1 -6973 -19z m4038 -2664
c28 -13 71 -43 94 -66 44 -44 90 -129 90 -167 0 -28 -4 -28 105 2 271 76 579
106 897 87 264 -15 439 -38 973 -127 576 -96 687 -109 960 -109 403 0 680 65
1001 234 79 42 104 50 148 50 104 0 196 -56 237 -145 18 -38 19 -99 19 -1545
0 -1007 -4 -1517 -10 -1542 -19 -66 -69 -119 -160 -170 -242 -136 -524 -228
-845 -275 -91 -13 -183 -17 -380 -17 -324 0 -482 18 -1090 119 -511 85 -626
101 -855 116 -327 23 -660 -21 -919 -121 l-76 -30 4 -307 c1 -170 4 -309 6
-311 1 -2 81 5 176 14 212 21 716 24 924 5 676 -61 1244 -214 1760 -476 213
-108 343 -187 508 -311 531 -399 841 -896 896 -1437 5 -53 8 -112 6 -130 -3
-17 -9 -77 -15 -132 -37 -330 -185 -677 -409 -955 -50 -61 -52 -65 -32 -74 27
-12 27 -28 0 -52 -20 -18 -20 -19 76 -67 l97 -48 42 25 c24 14 79 37 122 52
67 23 96 27 194 28 81 0 134 -5 180 -17 82 -22 3888 -1930 3978 -1994 135 -96
234 -259 261 -430 12 -80 -16 -213 -68 -318 -145 -292 -494 -436 -799 -328
-129 45 -3871 1929 -3950 1988 -125 94 -219 252 -245 411 l-12 76 -207 104
c-114 57 -213 104 -220 104 -7 0 -58 -30 -113 -65 -55 -36 -183 -108 -285
-159 -519 -263 -1078 -416 -1745 -478 -181 -17 -748 -16 -920 0 -322 32 -558
71 -827 138 -1076 269 -1888 863 -2188 1601 -87 216 -124 404 -124 633 0 123
5 176 23 259 66 301 211 592 419 841 378 453 989 822 1700 1026 l132 38 0
2111 c-1 2370 -8 2161 76 2254 55 61 94 86 165 106 70 19 157 12 225 -19z"/>
<path d="M7055 12434 c-214 -19 -400 -83 -570 -197 -84 -56 -226 -197 -284
-281 -140 -203 -202 -404 -202 -651 0 -203 35 -346 127 -525 57 -110 123 -198
222 -291 139 -134 297 -223 488 -276 92 -26 112 -28 289 -28 177 0 197 2 289
28 191 53 349 142 488 276 174 166 289 374 333 603 20 107 20 317 0 424 -43
228 -153 430 -322 595 -207 202 -448 306 -738 322 -44 2 -98 3 -120 1z"/>
<path d="M5658 8360 c-180 -11 -398 -36 -410 -48 -4 -4 -9 -496 -10 -1092 l-3
-1085 -30 -54 c-38 -68 -102 -125 -174 -152 -74 -28 -185 -23 -254 10 -60 29
-128 96 -158 158 l-24 48 -3 1013 -2 1014 -33 -7 c-110 -24 -459 -171 -632
-266 -528 -292 -862 -679 -939 -1089 -143 -749 602 -1488 1803 -1789 1153
-290 2478 -108 3321 454 452 301 706 658 750 1052 71 646 -534 1288 -1525
1618 -501 167 -1118 246 -1677 215z"/>
</g>
</svg>
